<svg width="21" height="20" viewBox="0 0 21 20" fill="none" xmlns="http://www.w3.org/2000/svg">
<path d="M20.5 8C20.5 6.89543 19.5673 6 18.4167 6H13.7292H9.04171C7.89111 6 6.95837 6.89543 6.95837 8V17C6.95837 18.1046 7.89111 19 9.04171 19H18.4167C19.5673 19 20.5 18.1046 20.5 17V8Z" stroke="#E5E5E5" stroke-opacity="0.9" stroke-width="0.8" stroke-linecap="round" stroke-linejoin="round"/>
<path d="M4.45837 13.6H3.41671C2.86417 13.6 2.33427 13.3893 1.94357 13.0142C1.55287 12.6391 1.33337 12.1304 1.33337 11.6V2.59998C1.33337 2.06954 1.55287 1.56083 1.94357 1.18576C2.33427 0.810689 2.86417 0.599976 3.41671 0.599976H12.7917C13.3442 0.599976 13.8741 0.810689 14.2648 1.18576C14.6555 1.56083 14.875 2.06954 14.875 2.59998V3.59998" stroke="#E5E5E5" stroke-opacity="0.9" stroke-width="0.8" stroke-linecap="round" stroke-linejoin="round"/>
</svg>
