<svg width="19" height="19" viewBox="0 0 19 19" fill="none" xmlns="http://www.w3.org/2000/svg">
<path d="M2.375 4.75H3.95833H16.625" stroke="#1E1E1E" stroke-width="2" stroke-linecap="round" stroke-linejoin="round"/>
<path d="M15.0417 4.75V15.8333C15.0417 16.2533 14.8749 16.656 14.578 16.9529C14.281 17.2498 13.8783 17.4167 13.4584 17.4167H5.54171C5.12178 17.4167 4.71905 17.2498 4.42212 16.9529C4.12519 16.656 3.95837 16.2533 3.95837 15.8333V4.75M6.33337 4.75V3.16667C6.33337 2.74674 6.50019 2.34401 6.79712 2.04708C7.09405 1.75015 7.49678 1.58333 7.91671 1.58333H11.0834C11.5033 1.58333 11.906 1.75015 12.203 2.04708C12.4999 2.34401 12.6667 2.74674 12.6667 3.16667V4.75" stroke="#1E1E1E" stroke-width="2" stroke-linecap="round" stroke-linejoin="round"/>
</svg>
